<?xml version="1.0" encoding="UTF-8" standalone="no"?>
<svg xmlns="http://www.w3.org/2000/svg" version="1.1" width="696" height="503">
<path d="M0 0 C53.661251 -0.16121214 53.661251 -0.16121214 76.27148438 -0.1953125 C91.83916539 -0.21898099 107.40675935 -0.24669656 122.97436523 -0.30175781 C134.31577869 -0.34185199 145.65712103 -0.36748609 156.9986034 -0.37635398 C162.99383773 -0.38153078 168.98886877 -0.39354174 174.9840374 -0.42292023 C223.53561882 -0.65154749 223.53561882 -0.65154749 243 4 C243.82406279 4.18990257 244.64812557 4.37980515 245.49715996 4.57546234 C254.81436144 6.74634279 263.62481153 9.87178223 272.5 13.4375 C273.39614014 13.79674561 274.29228027 14.15599121 275.21557617 14.52612305 C285.77958105 18.92738286 294.89981004 25.12430092 304 32 C305.03125 32.763125 306.0625 33.52625 307.125 34.3125 C311.57681122 38.47397571 315.2343049 43.22150965 319 48 C319.54914063 48.64839844 320.09828125 49.29679687 320.6640625 49.96484375 C336.13715579 68.87180533 340.52138749 96.39411268 339 120 C336.51186729 143.14072548 323.07322807 160.32093829 307 176 C307.68707031 176.54398438 308.37414062 177.08796875 309.08203125 177.6484375 C333.39916842 197.24538071 351.01122769 218.43310962 359.83203125 248.87109375 C362.02206304 256.40120307 364.78594496 263.55413131 367.75 270.8125 C371.58490541 280.20939064 374.97442529 289.66128817 378.09619141 299.31616211 C380.48222955 306.62800057 383.21585693 313.73425026 386.14111328 320.8449707 C388.60471614 326.87782586 390.70530216 332.97104518 392.69824219 339.17285156 C395.67235224 348.28993927 399.34642722 357.13820201 403 366 C403.23332031 365.30261719 403.46664063 364.60523438 403.70703125 363.88671875 C406.55913379 355.63275415 409.78955523 347.57022606 413.125 339.5 C417.46294111 328.99129899 421.46521882 318.40609114 425.31356812 307.7114563 C428.59647861 298.60519216 432.17264689 289.70107604 436.08081055 280.84741211 C438.40754291 275.53210954 440.21121581 270.25947889 441.7890625 264.671875 C443.50505247 259.46855057 445.66877556 254.47704313 447.8125 249.4375 C450.96278326 242.02921076 453.93249032 234.63047761 456.5 227 C459.41425236 218.34605992 462.83777395 209.95602024 466.44921875 201.5703125 C468.9447744 195.73135217 471.10374888 189.86948905 473.06420898 183.83007812 C474.38640683 179.83140413 475.89095458 175.91628789 477.4375 172 C477.73825439 171.23163818 478.03900879 170.46327637 478.34887695 169.67163086 C480.45099094 164.32481576 482.63926141 159.01856711 484.89453125 153.734375 C486.01671154 150.95866404 486.94380082 148.15717597 487.875 145.3125 C492.1775074 133.45934722 502.26819725 124.48417446 513.5 119.125 C515.90625 118.0703125 515.90625 118.0703125 519 117 C519.65797073 116.7523439 520.31594147 116.50468781 520.99385071 116.24952698 C530.59987124 113.09353806 540.33881331 113.62258112 550.32421875 113.70703125 C552.28147555 113.71263592 554.2387366 113.71690189 556.19599915 113.71989441 C561.31370948 113.73127466 566.43115889 113.7606822 571.54876709 113.79400635 C576.78442863 113.82485526 582.02013288 113.83843124 587.25585938 113.85351562 C597.50402004 113.88555921 607.75198821 113.93667182 618 114 C617.86602194 115.41984451 617.72515435 116.83903979 617.58146667 118.25793457 C617.50377643 119.04831367 617.42608618 119.83869278 617.34604168 120.65302277 C616.81369799 124.26356624 615.5079918 127.39425203 614.05078125 130.71875 C613.75568161 131.42036255 613.46058197 132.1219751 613.15653992 132.84484863 C612.21956605 135.06811064 611.26718601 137.28429343 610.3125 139.5 C609.07259363 142.40338525 607.84017038 145.30984102 606.61328125 148.21875 C606.15519325 149.30221962 606.15519325 149.30221962 605.68785095 150.40757751 C603.26970392 156.19497212 601.1695352 162.06414783 599.12866211 167.99317932 C597.00280344 174.12128411 594.49529175 180.0320099 591.8125 185.9375 C588.2931698 193.68950663 588.2931698 193.68950663 585.59375 201.75 C583.80267018 208.06394573 581.15091052 214.01343404 578.56143188 220.02975464 C574.47592726 229.53254396 570.45684309 239.01873145 567.17871094 248.83544922 C564.72125353 256.07414453 561.69702058 263.07920003 558.6887207 270.10327148 C556.47887202 275.29837756 554.43418963 280.50734911 552.56640625 285.8359375 C549.99114274 293.16089708 547.02519946 300.28902332 544 307.4375 C540.42796385 315.93776533 537.08269329 324.3910491 534.33984375 333.19921875 C532.24517149 339.48323554 529.37645325 345.503003 526.65185547 351.53271484 C524.55871417 356.20895118 522.66312687 360.84864581 521.08984375 365.7265625 C518.90293362 372.5007835 516.20747272 379.04098357 513.48461914 385.6114502 C509.36219425 395.56744 505.30600441 405.52129283 501.8269043 415.72387695 C499.18420681 423.46719379 495.98626466 430.91640581 492.5 438.3125 C490.36161201 442.95773668 488.77198422 447.66392536 487.2265625 452.53393555 C484.79993204 459.95078449 481.71353572 467.09432864 478.66235352 474.27148438 C476.35680276 479.70078209 474.20025295 485.12168069 472.25 490.6875 C470.02409481 496.6022728 467.5461776 498.98677076 462.06920624 502.09614658 C459.84910105 503.06591442 458.36390503 503.25788882 455.9552002 503.27415466 C455.15928467 503.28412979 454.36336914 503.29410492 453.54333496 503.30438232 C452.67889771 503.305047 451.81446045 503.30571167 450.92382812 503.30639648 C450.00617676 503.31472 449.08852539 503.32304352 448.14306641 503.33161926 C445.10575113 503.35573349 442.0686509 503.36449583 439.03125 503.37109375 C436.91337013 503.38006332 434.79549089 503.38918523 432.6776123 503.39845276 C428.23232485 503.41495221 423.78711276 503.42264386 419.34179688 503.42553711 C413.6705128 503.43090304 407.99994705 503.4685052 402.32886505 503.51428127 C397.94996626 503.54416982 393.57123737 503.55126333 389.19224548 503.55226326 C387.10323315 503.5564469 385.01421944 503.56880585 382.92530823 503.58978081 C361.99453268 503.78310875 361.99453268 503.78310875 352 498 C351.14929428 497.52368134 350.29858856 497.04736267 349.42210388 496.55661011 C340.16299588 491.14265545 335.28383439 482.50496156 331.375 472.8125 C331.01921875 471.96880859 330.6634375 471.12511719 330.296875 470.25585938 C328.2349602 465.29762182 326.37767946 460.28857606 324.59765625 455.22265625 C322.01370835 447.90827215 319.0737087 440.77207417 316.0625 433.625 C309.57078048 418.11612493 309.57078048 418.11612493 306.75 410.375 C304.33319879 403.75382271 301.60685618 397.29410725 298.83251953 390.81567383 C296.53611523 385.4051131 294.52003786 379.96928185 292.7890625 374.34765625 C292.06241951 371.98792988 292.06241951 371.98792988 290.8984375 369.87109375 C290 368 290 368 290 365 C289.12085938 365.4846875 288.24171875 365.969375 287.3359375 366.46875 C278.02491703 371.34005423 268.51007694 374.56804182 258.375 377.3125 C257.20501465 377.63734375 256.0350293 377.9621875 254.82958984 378.296875 C235.87089062 383.22905313 216.70399914 384.44986392 197.19360352 384.34057617 C195.02275098 384.33972696 192.85189758 384.34021075 190.68104553 384.34190369 C184.86846504 384.34275361 179.05607572 384.32529312 173.24353909 384.30418181 C167.13908981 384.28524501 161.03463465 384.28365133 154.93016052 384.28010559 C143.40652912 384.27083453 131.88298456 384.24628863 120.35939115 384.21605712 C104.76208645 384.17603921 89.16475748 384.16001826 73.56741428 384.14255047 C49.04487799 384.11446319 24.52252483 384.05466096 0 384 C0 345.72 0 307.44 0 268 C-1.65 267.67 -3.3 267.34 -5 267 C-6.92165534 266.11663651 -8.81673947 265.17408265 -10.6875 264.1875 C-14.27027183 262.34840163 -17.7968973 260.61446523 -21.5625 259.1875 C-26.62823483 257.23976997 -31.48454902 254.90719771 -36.375 252.5625 C-41.54004363 250.08724106 -46.68759621 247.64740829 -52 245.5 C-57.48916609 243.27614384 -62.83524407 240.78152594 -68.1875 238.25 C-69.03892578 237.84845703 -69.89035156 237.44691406 -70.76757812 237.03320312 C-71.95577148 236.46762695 -71.95577148 236.46762695 -73.16796875 235.890625 C-73.88235107 235.55063477 -74.5967334 235.21064453 -75.33276367 234.86035156 C-77 234 -77 234 -78 233 C-78.09514592 230.29161914 -78.12554932 227.60881487 -78.11352539 224.90014648 C-78.11367142 224.05143982 -78.11381744 223.20273315 -78.1139679 222.32830811 C-78.11326848 219.50921109 -78.10547478 216.69017929 -78.09765625 213.87109375 C-78.09579217 211.92196183 -78.09436822 209.97282945 -78.09336853 208.0236969 C-78.08954255 202.88293168 -78.07971159 197.74219453 -78.06866455 192.60144043 C-78.05665796 186.43908518 -78.05204857 180.27672058 -78.04621124 174.11435699 C-78.03649987 164.74288512 -78.01734388 155.37147487 -78 146 C-52.26 146 -26.52 146 0 146 C0 97.82 0 49.64 0 0 Z M115 86 C115 105.8 115 125.6 115 146 C129.30563281 146.11649891 129.30563281 146.11649891 143.61132812 146.1953125 C149.45303019 146.21914939 155.29447955 146.2472343 161.13598633 146.30175781 C165.8498275 146.34547653 170.56339737 146.36919169 175.27742577 146.37950897 C177.06862847 146.38685391 178.85981768 146.40119596 180.6509037 146.42292023 C192.78167741 146.56409626 204.23224907 146.24832301 214 138 C220.66888068 130.80164297 224.58601703 124.47849876 224.3125 114.4609375 C223.32523381 106.68621627 220.2247907 98.95999259 214 94 C205.01117859 88.53074528 196.36009275 85.66639692 185.83984375 85.77294922 C185.06814346 85.77265717 184.29644318 85.77236511 183.50135803 85.77206421 C180.97995297 85.77344469 178.4588527 85.78894467 175.9375 85.8046875 C174.17773602 85.8084222 172.41796994 85.81126701 170.65820312 85.81326294 C166.04850424 85.82086342 161.43893333 85.84048077 156.82928467 85.8626709 C151.2866836 85.88682375 145.7440395 85.89592739 140.20140076 85.90757751 C131.80084509 85.92690752 123.40056971 85.965255 115 86 Z M115 232 C115 253.78 115 275.56 115 298 C128.8769351 298.08743647 128.8769351 298.08743647 142.75390625 298.14648438 C148.4240779 298.16433191 154.09410251 298.18531308 159.76416016 298.22631836 C164.34184238 298.25921183 168.91936665 298.2769154 173.49715805 298.28463173 C175.23283241 298.29012196 176.96849934 298.30084087 178.70410538 298.31719017 C193.07870915 298.44705967 209.80859057 298.42545864 221.0625 288.109375 C228.17634803 280.34342424 230.31576521 272.9650361 230.14453125 262.58203125 C229.69834133 254.61090857 227.77873851 248.69751126 222 243 C207.69276472 231.29621245 189.48354792 231.8435574 171.93359375 231.90234375 C170.28735904 231.90421185 168.64112377 231.9056339 166.99488831 231.90663147 C162.68938629 231.91042579 158.38391871 231.92022929 154.07843018 231.93133545 C148.8978827 231.94342806 143.71732364 231.94796651 138.53676605 231.95378876 C130.69115352 231.96344305 122.84561634 231.98262108 115 232 Z " fill="#5674CE" transform="translate(78,0)"/>
<path d="M0 0 C1.9572568 0.00560467 3.91451785 0.00987064 5.8717804 0.01286316 C10.98949073 0.02424341 16.10694014 0.05365095 21.22454834 0.0869751 C26.46020988 0.11782401 31.69591413 0.13139999 36.93164062 0.14648438 C47.17980129 0.17852796 57.42776946 0.22964057 67.67578125 0.29296875 C67.54180319 1.71281326 67.4009356 3.13200854 67.25724792 4.55090332 C67.17955768 5.34128242 67.10186743 6.13166153 67.02182293 6.94599152 C66.48947924 10.55653499 65.18377305 13.68722078 63.7265625 17.01171875 C63.43146286 17.7133313 63.13636322 18.41494385 62.83232117 19.13781738 C61.8953473 21.36107939 60.94296726 23.57726218 59.98828125 25.79296875 C58.74837488 28.696354 57.51595163 31.60280977 56.2890625 34.51171875 C55.9836705 35.23403183 55.6782785 35.95634491 55.3636322 36.70054626 C52.94548517 42.48794087 50.84531645 48.35711658 48.80444336 54.28614807 C46.67858469 60.41425286 44.171073 66.32497865 41.48828125 72.23046875 C37.96895105 79.98247538 37.96895105 79.98247538 35.26953125 88.04296875 C33.47845143 94.35691448 30.82669177 100.30640279 28.23721313 106.32272339 C24.15170851 115.82551271 20.13262434 125.3117002 16.85449219 135.12841797 C14.39703478 142.36711328 11.37280183 149.37216878 8.36450195 156.39624023 C6.15465327 161.59134631 4.10997088 166.80031786 2.2421875 172.12890625 C-0.33307601 179.45386583 -3.29901929 186.58199207 -6.32421875 193.73046875 C-9.8962549 202.23073408 -13.24152546 210.68401785 -15.984375 219.4921875 C-18.07904726 225.77620429 -20.9477655 231.79597175 -23.67236328 237.82568359 C-25.76550458 242.50191993 -27.66109188 247.14161456 -29.234375 252.01953125 C-31.42128513 258.79375225 -34.11674603 265.33395232 -36.83959961 271.90441895 C-40.9620245 281.86040875 -45.01821434 291.81426158 -48.49731445 302.0168457 C-51.14001194 309.76016254 -54.33795409 317.20937456 -57.82421875 324.60546875 C-59.96260674 329.25070543 -61.55223453 333.95689411 -63.09765625 338.8269043 C-65.52428671 346.24375324 -68.61068303 353.38729739 -71.66186523 360.56445312 C-73.96741599 365.99375084 -76.1239658 371.41464944 -78.07421875 376.98046875 C-79.97061336 382.0196516 -81.73620727 384.46206805 -86.32421875 387.29296875 C-87.00484375 387.72609375 -87.68546875 388.15921875 -88.38671875 388.60546875 C-90.97050237 389.52229519 -92.60357018 389.76908225 -95.32421875 389.29296875 C-102.14131327 382.90194264 -105.31683037 372.12645993 -108.44921875 363.54296875 C-108.8253833 362.52654297 -109.20154785 361.51011719 -109.58911133 360.46289062 C-110.84062831 357.07526459 -112.08303236 353.6843926 -113.32421875 350.29296875 C-113.78646406 349.03314549 -114.24886999 347.77338117 -114.71142578 346.51367188 C-116.62405585 341.30462288 -118.5360964 336.09536604 -120.44116211 330.88354492 C-122.76491004 324.52796769 -125.10759448 318.18108827 -127.51171875 311.85546875 C-130.23910863 304.62945303 -132.76166922 297.33693028 -135.27612305 290.03442383 C-137.8121603 282.69159049 -140.46696046 275.39931132 -143.24194336 268.14331055 C-145.32421875 262.61480525 -145.32421875 262.61480525 -145.32421875 259.29296875 C-145.98421875 259.29296875 -146.64421875 259.29296875 -147.32421875 259.29296875 C-147.78737028 246.45249173 -140.57533214 233.9756452 -135.76098633 222.30712891 C-131.93096207 212.9553218 -128.43166128 203.51147776 -125.01065063 194.00442505 C-121.72774014 184.89816091 -118.15157186 175.99404479 -114.2434082 167.14038086 C-111.91667584 161.82507829 -110.11300294 156.55244764 -108.53515625 150.96484375 C-106.81916628 145.76151932 -104.65544319 140.77001188 -102.51171875 135.73046875 C-99.36143549 128.32217951 -96.39172843 120.92344636 -93.82421875 113.29296875 C-90.90996639 104.63902867 -87.4864448 96.24898899 -83.875 87.86328125 C-81.37944435 82.02432092 -79.22046987 76.1624578 -77.26000977 70.12304688 C-75.93781192 66.12437288 -74.43326417 62.20925664 -72.88671875 58.29296875 C-72.58596436 57.52460693 -72.28520996 56.75624512 -71.9753418 55.96459961 C-69.87322781 50.61778451 -67.68495734 45.31153586 -65.4296875 40.02734375 C-64.30750721 37.25163279 -63.38041793 34.45014472 -62.44921875 31.60546875 C-58.14671135 19.75231597 -48.0560215 10.77714321 -36.82421875 5.41796875 C-34.41796875 4.36328125 -34.41796875 4.36328125 -31.32421875 3.29296875 C-30.66624802 3.04531265 -30.00827728 2.79765656 -29.33036804 2.54249573 C-19.72434751 -0.61349319 -9.98540544 -0.08445013 0 0 Z " fill="#5AC8DE" transform="translate(628.32421875,113.70703125)"/>
<path d="M0 0 C26.07 0 52.14 0 79 0 C79 12.21 79 24.42 79 37 C73.35790438 34.74316175 68.316878 32.70750524 63.01953125 29.98046875 C60.94056574 28.97114507 58.8463338 28.13651083 56.6875 27.3125 C51.54437858 25.30930588 46.59891922 22.94685706 41.625 20.5625 C36.45993769 18.08727348 31.31240715 15.64740965 26 13.5 C20.52334419 11.27339956 15.16630299 8.81701776 9.8125 6.3125 C8.53536133 5.72275391 8.53536133 5.72275391 7.23242188 5.12109375 C6.44029297 4.74726563 5.64816406 4.3734375 4.83203125 3.98828125 C4.11764893 3.65352783 3.4032666 3.31877441 2.66723633 2.97387695 C1 2 1 2 0 0 Z " fill="#51B3C7" transform="translate(0,232)"/>
</svg>